<?xml version="1.0" standalone="no"?>
<!DOCTYPE svg PUBLIC "-//W3C//DTD SVG 20010904//EN"
 "http://www.w3.org/TR/2001/REC-SVG-20010904/DTD/svg10.dtd">
<svg version="1.0" xmlns="http://www.w3.org/2000/svg"
 width="700.000000pt" height="700.000000pt" viewBox="0 0 700.000000 700.000000"
 preserveAspectRatio="xMidYMid meet">
<metadata>
Created by potrace 1.11, written by Peter Selinger 2001-2013
</metadata>
<g transform="translate(0.000000,700.000000) scale(0.100000,-0.100000)"
fill="#000000" stroke="none">
<path d="M185 5702 c-3 -3 49 -139 79 -207 8 -16 69 -167 136 -335 67 -168
128 -318 135 -335 7 -16 64 -156 125 -310 62 -154 118 -293 125 -310 7 -16 43
-104 79 -195 37 -91 70 -174 75 -185 5 -11 37 -90 71 -175 34 -85 81 -202 105
-260 24 -58 75 -184 113 -280 39 -96 87 -215 107 -265 20 -49 119 -295 220
-545 366 -907 406 -1004 414 -1014 12 -14 1348 -14 1359 0 5 5 23 47 41 94 18
47 39 99 47 115 7 17 75 183 149 370 75 187 142 354 149 370 8 17 40 95 71
175 32 80 61 149 65 153 4 4 385 9 847 9 l841 1 17 36 c10 20 61 131 115 246
54 116 114 246 135 290 21 44 50 107 65 140 15 33 43 94 63 135 143 307 187
404 182 408 -2 3 -398 5 -879 5 l-875 -1 18 47 c92 231 225 557 230 564 6 6
472 12 1367 18 l322 1 55 117 c31 64 89 188 130 276 41 88 88 189 104 225 17
36 58 124 91 195 33 72 78 168 100 215 22 47 53 114 69 150 l29 65 -1559 0
-1559 0 -15 -35 c-8 -19 -20 -51 -27 -70 -16 -42 -203 -507 -216 -535 -17 -37
-210 -516 -210 -521 0 -3 -9 -24 -19 -47 -10 -23 -58 -139 -105 -257 -48 -118
-91 -224 -96 -235 -5 -11 -27 -67 -50 -125 -89 -223 -102 -256 -115 -285 -7
-16 -45 -111 -85 -210 -39 -99 -77 -193 -84 -210 -7 -16 -29 -69 -47 -117 -19
-48 -37 -88 -40 -88 -3 0 -16 26 -29 58 -64 164 -145 364 -165 407 -7 17 -63
156 -125 310 -61 154 -118 294 -125 310 -7 17 -88 217 -180 445 -313 777 -397
985 -410 1015 -7 17 -26 62 -41 100 -15 39 -31 74 -36 80 -8 9 -1344 16 -1353
7z"/>
</g>
</svg>
